<svg xmlns="http://www.w3.org/2000/svg" viewBox="0 0 512 512" width="512" height="512">
  <rect width="512" height="512" rx="100" fill="#16181f"/>
  <rect x="48" y="48" width="416" height="416" rx="72" fill="#1e2029"/>
  <rect x="128" y="130" width="124" height="156" rx="16" fill="#7c6aff" opacity="0.9"/>
  <rect x="252" y="130" width="124" height="156" rx="16" fill="#6affd4" opacity="0.9"/>
  <rect x="128" y="130" width="124" height="156" rx="16" fill="none" stroke="#0e0f13" stroke-width="5"/>
  <rect x="252" y="130" width="124" height="156" rx="16" fill="none" stroke="#0e0f13" stroke-width="5"/>
  <rect x="244" y="130" width="16" height="156" fill="#0e0f13"/>
  <rect x="148" y="170" width="72" height="8" rx="4" fill="#fff" opacity="0.5"/>
  <rect x="148" y="188" width="58" height="8" rx="4" fill="#fff" opacity="0.5"/>
  <rect x="148" y="206" width="66" height="8" rx="4" fill="#fff" opacity="0.5"/>
  <rect x="148" y="224" width="52" height="8" rx="4" fill="#fff" opacity="0.5"/>
  <polyline points="276,216 300,240 346,188" fill="none" stroke="#0e0f13" stroke-width="13" stroke-linecap="round" stroke-linejoin="round"/>
  <rect x="88" y="322" width="336" height="22" rx="11" fill="#2a2d3a"/>
  <rect x="88" y="322" width="210" height="22" rx="11" fill="#7c6aff"/>
  <rect x="88" y="322" width="112" height="22" rx="11" fill="#6affd4"/>
  <circle cx="390" cy="400" r="52" fill="#ff6a8a"/>
  <polyline points="390,372 390,400 410,400" fill="none" stroke="#fff" stroke-width="7" stroke-linecap="round" stroke-linejoin="round"/>
</svg>
