<svg xmlns="http://www.w3.org/2000/svg" viewBox="0 0 192 192" width="192" height="192">
  <rect width="192" height="192" rx="40" fill="#16181f"/>
  <rect x="20" y="20" width="152" height="152" rx="28" fill="#1e2029"/>
  <!-- Book icon -->
  <rect x="52" y="54" width="44" height="56" rx="6" fill="#7c6aff" opacity="0.9"/>
  <rect x="96" y="54" width="44" height="56" rx="6" fill="#6affd4" opacity="0.9"/>
  <rect x="52" y="54" width="44" height="56" rx="6" fill="none" stroke="#0e0f13" stroke-width="2"/>
  <rect x="96" y="54" width="44" height="56" rx="6" fill="none" stroke="#0e0f13" stroke-width="2"/>
  <!-- Spine -->
  <rect x="93" y="54" width="6" height="56" fill="#0e0f13"/>
  <!-- Lines on left page -->
  <rect x="60" y="68" width="28" height="3" rx="1.5" fill="#fff" opacity="0.5"/>
  <rect x="60" y="76" width="22" height="3" rx="1.5" fill="#fff" opacity="0.5"/>
  <rect x="60" y="84" width="26" height="3" rx="1.5" fill="#fff" opacity="0.5"/>
  <!-- Checkmark on right page -->
  <polyline points="107,82 115,90 129,72" fill="none" stroke="#0e0f13" stroke-width="5" stroke-linecap="round" stroke-linejoin="round"/>
  <!-- Progress bar at bottom -->
  <rect x="38" y="128" width="116" height="8" rx="4" fill="#2a2d3a"/>
  <rect x="38" y="128" width="74" height="8" rx="4" fill="#7c6aff"/>
  <rect x="38" y="128" width="40" height="8" rx="4" fill="#6affd4"/>
  <!-- Clock dot -->
  <circle cx="140" cy="148" r="16" fill="#ff6a8a"/>
  <polyline points="140,138 140,148 147,148" fill="none" stroke="#fff" stroke-width="2.5" stroke-linecap="round" stroke-linejoin="round"/>
</svg>
